<?xml version="1.0" ?>
<!DOCTYPE svg  PUBLIC '-//W3C//DTD SVG 1.1//EN'  'http://www.w3.org/Graphics/SVG/1.1/DTD/svg11.dtd'>
<!-- Uploaded to: SVG Repo, www.svgrepo.com, Generator: SVG Repo Mixer Tools -->
<svg width="800px" height="800px" viewBox="0 0 16666.66 16666.66" style="shape-rendering:geometricPrecision; text-rendering:geometricPrecision; image-rendering:optimizeQuality; fill-rule:evenodd; clip-rule:evenodd" version="1.1" xml:space="preserve" xmlns="http://www.w3.org/2000/svg" xmlns:xlink="http://www.w3.org/1999/xlink" xmlns:xodm="http://www.corel.com/coreldraw/odm/2003">
<defs>
<style type="text/css">
   <![CDATA[
    .fil0 {fill:none}
    .fil2 {fill:black;fill-rule:nonzero}
    .fil5 {fill:#96B9D7;fill-rule:nonzero}
    .fil1 {fill:#ACD4F7;fill-rule:nonzero}
    .fil4 {fill:#DEDEDE;fill-rule:nonzero}
    .fil3 {fill:white;fill-rule:nonzero}
   ]]>
  </style>
</defs>
<g id="Layer_x0020_1">
<rect class="fil0" height="16666.66" width="16666.66" x="-0" y="-0"/>
<g id="_2101149494384">
<polygon class="fil1" points="2172.05,11010.6 4460.58,14414.32 6749.13,11010.6 5460.83,11010.6 5405.66,5866.75 3405.27,5866.75 3460.36,11010.6 "/>
<path class="fil2" d="M2327.35 11093.31l2133.23 3172.7 2133.2 -3172.7 -1132.96 0c-45.36,0 -82.26,-36.49 -82.74,-81.85l-54.28 -5062.07 -1834.94 0 54.2 5060.37c0.3,22.05 -8.35,43.34 -23.85,59.02 -15.6,15.69 -36.7,24.52 -58.86,24.52l-1133.01 0zm2133.23 3403.72c-27.57,0 -53.23,-13.77 -68.65,-36.6l-2288.58 -3403.72c-17,-25.39 -18.73,-58 -4.39,-85 14.42,-26.98 42.5,-43.82 73.06,-43.82l1204.76 0 -54.22 -5060.27c-0.27,-22.15 8.38,-43.37 23.88,-59.05 15.55,-15.69 36.74,-24.52 58.83,-24.52l2000.39 0c45.28,0 82.15,36.49 82.63,81.85l54.39 5061.99 1206.45 0c30.51,0 58.68,16.84 73.01,43.82 14.37,27 12.64,59.61 -4.37,85l-2288.55 3403.72c-15.39,22.83 -41.16,36.6 -68.65,36.6z"/>
<path class="fil3" d="M2911.49 7597.47c2248.96,25.01 4497.87,50.02 6746.75,75.04 617.16,6.84 1241.73,12.91 1841.86,-131.12 600.05,-144.06 1182.9,-456.39 1528.87,-967.42 345.89,-511.05 403.33,-1240.04 35.55,-1735.56 -296.06,-399.07 -820.43,-589.97 -1316.26,-557.73 -495.83,32.31 -686.56,153.73 -1075.07,463.59 88.54,-282.59 148.99,-435.45 125.03,-774.13 -23.77,-338.59 -192.43,-654.24 -414.62,-910.77 -582.37,-672.39 -1567.39,-965.13 -2422.42,-720.04 -854.95,245.12 -1535.24,1015.26 -1672.91,1894.06 -226.2,-871.66 -1322.37,-1362.28 -2156.19,-1022.08 -833.77,340.18 -1281.27,1371.4 -1042.11,2239.56 -196.29,-375.84 -672.84,-553.15 -1088.92,-471.19 -416.07,81.96 -765.23,383.06 -986.48,744.83 -121.31,198.44 -211.43,428.44 -184.7,659.47 44.12,381.26 386.13,655.94 728.31,829.86 542.61,275.82 1154.74,381.44 1353.29,383.63z"/>
<path class="fil2" d="M2205.63 5042.61c-62.83,0 -126.03,5.9 -188.56,18.27 -361.04,71.1 -700.74,328.78 -931.92,706.8 -135.78,222.11 -194.02,426.24 -173.08,606.79 42.53,367.21 395.22,619.07 683.62,765.58 511.97,260.32 1110.18,372.52 1316.71,374.7l6746.81 75.11c603.85,6.66 1227.93,13.5 1821.51,-129.02 652.9,-156.7 1178.4,-488.15 1479.72,-933.3 346.83,-512.29 362.71,-1201.98 37.73,-1639.91 -264.42,-356.27 -742.19,-556.98 -1244.48,-524.37 -469.98,30.54 -645.86,140.15 -1028.84,445.72 -28.52,22.75 -68.46,24.07 -98.4,3.53 -29.97,-20.54 -43.07,-58.3 -32.15,-92.9l21.7 -68.54c75.19,-237.23 120.56,-380.5 99.83,-675.05 -25.87,-366.06 -228.95,-671.06 -394.78,-862.55 -557.33,-643.6 -1518.5,-929.2 -2337.01,-694.57 -818.54,234.56 -1482.28,985.96 -1614.07,1827.22 -5.98,38.7 -38.41,67.89 -77.59,69.78 -38.41,1.54 -74.25,-23.85 -84.14,-61.8 -96.3,-371.47 -373.46,-695.59 -760.14,-889.56 -413.79,-207.44 -894.03,-236.18 -1284.72,-76.7 -771.59,314.79 -1226.67,1295.34 -993.65,2141.07 11.19,40.78 -10.13,83.47 -49.51,98.86 -39.13,15.71 -84,-1.02 -103.6,-38.59 -142.39,-272.78 -470.76,-446.58 -810.97,-446.58zm7843.19 2715.46c-131.2,0 -261.75,-1.43 -391.42,-2.85l-6746.86 -75.03c-197.66,-2.19 -821.94,-104.01 -1389.8,-392.66 -324.58,-164.89 -722.05,-453.92 -773.05,-893.95 -25.26,-218.2 40.78,-457.8 196.37,-712.22 255.23,-417.4 634.68,-702.73 1041.03,-782.78 353.65,-69.8 716.99,30.51 964.91,246.26 -80.37,-843.17 390.23,-1699.74 1150.91,-2010.17 434.32,-177.23 965.62,-146.43 1421.31,82.07 334.12,167.53 594.93,424.43 745.34,726.96 227.04,-795.79 869.78,-1454.32 1670.91,-1683.84 892.31,-255.56 1900.05,43.82 2507.59,745.31 182.38,210.41 405.73,547.76 434.81,959.17 16.93,240.92 -6.85,392.95 -52.02,555.63 282.85,-206.42 494.43,-294.55 914.09,-321.85 558.59,-35.84 1090.56,190.06 1388.05,590.94 371.39,500.38 357.59,1253.51 -33.56,1831.29 -324.5,479.38 -884.9,835.09 -1578,1001.46 -483.97,116.11 -981.04,136.26 -1470.61,136.26z"/>
<path class="fil4" d="M6092.03 7550.11l-2648.35 -29.46c-83.17,-6.39 -166.29,-13.23 -249.52,-17.71 -199.55,-3.99 -399.96,-1.89 -597.59,-34.23 -112.82,-22.13 -225.91,-47.62 -339.48,-74.52 -211.7,-59.99 -444.27,-143.76 -661.39,-254.15 -84.22,-42.8 -173.89,-94.52 -259.73,-155.54 8.65,-54.69 38.97,-105.65 92.77,-135.11 29.94,-19.13 61.99,-25.98 94.68,-25.98 43.74,0 88.7,12.18 131.39,23.02 128.07,29.76 258.09,49.91 386.35,78.54 379.34,78.05 566.49,127.7 705.05,136.35 290.11,14.45 580.67,13.21 870.48,37.46 447.72,5.23 895.54,0.48 1343.18,17.19 134.06,8.87 268,12.07 401.98,12.07 305.39,0 610.88,-16.52 916.46,-19.3 84.55,-0.76 169.07,-1.24 253.59,-1.62 -66.35,140.82 -124.09,286.39 -172.46,436.24 -89.1,1.51 -178.28,3.99 -267.39,6.74z"/>
<path class="fil2" d="M5359.46 7569.9c-504.29,-17.49 -1008.79,-33.18 -1513.46,-33.18 -21.89,0 -43.85,0 -65.71,0.08 -1.51,0 -2.94,0 -4.37,0 -111.07,0 -221.73,-7.6 -332.26,-16.15l2648.35 29.46c-244.15,7.71 -488.3,18.17 -732.57,19.78zm-3102.38 -175.7c-257.47,-60.85 -517.25,-129.12 -781.05,-183.13 -105.11,-25.28 -155.16,-131.69 -140.07,-226.56 85.84,61.02 175.51,112.74 259.73,155.54 217.12,110.39 449.68,194.16 661.39,254.15z"/>
<path class="fil3" d="M12120.6 11354.79c577.49,568.19 1155.11,1136.38 1732.6,1704.57 305.04,300.16 610.88,600.88 943.3,861.2 179.2,140.44 378.7,273.18 596.79,273.26 218.12,0.11 449.93,-183.78 448.2,-430.31 -1.32,-192.27 -134.06,-346.76 -258.41,-477.98 -919.61,-969.87 -1880.75,-1889.48 -2878.9,-2754.52 -182.92,268.03 -365.94,536.15 -583.58,823.77z"/>
<path class="fil2" d="M12230.21 11346.6l1681.1 1653.82c298.46,293.69 607.27,597.38 936.13,855.12 169.44,132.65 352.85,255.5 545.95,255.58l0.19 0c94.52,0 193.86,-43.26 265.93,-115.81 64.55,-64.93 99.83,-147.07 99.26,-231.22 -1.05,-160.79 -117.05,-296.46 -235.8,-421.68 -892.6,-941.47 -1835.28,-1845.47 -2802.81,-2687.97 -151.85,222.21 -309.78,451.17 -489.95,692.17zm3163.26 2929.94l-0.19 0c-243.21,-0.08 -455.13,-139.85 -647.86,-290.83 -336.19,-263.37 -648.34,-570.48 -950.23,-867.3l-1732.6 -1704.57c-29.67,-29.19 -32.99,-75.79 -8,-108.96 217.44,-287.25 402.39,-558.3 581.23,-820.43 13.31,-19.51 34.31,-32.42 57.7,-35.39 23.29,-3.31 46.98,3.99 64.85,19.4 996.23,863.42 1966.81,1792.03 2884.69,2760.13 135.3,142.63 279.62,313.28 281.13,534.34 0.86,128.56 -51.43,252.54 -147.37,349.05 -102.39,103.06 -245.67,164.57 -383.36,164.57z"/>
<path class="fil3" d="M9866.76 11408.99c-1510.89,0 -2735.59,-1224.73 -2735.59,-2735.63 0,-1510.87 1224.7,-2735.6 2735.59,-2735.6 1510.79,0 2735.6,1224.73 2735.6,2735.6 0,1510.9 -1224.81,2735.63 -2735.6,2735.63zm0 0c-1510.89,0 -2735.59,-1224.73 -2735.59,-2735.63 0,-1510.87 1224.7,-2735.6 2735.59,-2735.6 1510.79,0 2735.6,1224.73 2735.6,2735.6 0,1510.9 -1224.81,2735.63 -2735.6,2735.63zm0 -6337.47c-1989.23,0 -3601.87,1612.61 -3601.87,3601.84 0,1989.26 1612.64,3601.87 3601.87,3601.87 1989.23,0 3601.76,-1612.61 3601.76,-3601.87 0,-1989.23 -1612.53,-3601.84 -3601.76,-3601.84z"/>
<path class="fil2" d="M7213.88 8673.37c0,1462.79 1189.99,2652.88 2652.88,2652.88 1462.79,0 2652.89,-1190.09 2652.89,-2652.88 0,-1462.76 -1190.09,-2652.96 -2652.89,-2652.96 -1462.89,0 -2652.88,1190.2 -2652.88,2652.96zm2652.88 2818.34c-1554.07,0 -2818.33,-1264.26 -2818.33,-2818.34 0,-1554.05 1264.26,-2818.31 2818.33,-2818.31 1553.97,0 2818.31,1264.26 2818.31,2818.31 0,1554.07 -1264.35,2818.34 -2818.31,2818.34zm0 -6337.38c-1940.47,0 -3519.15,1578.6 -3519.15,3519.05 0,1940.48 1578.68,3519.16 3519.15,3519.16 1940.37,0 3519.13,-1578.68 3519.13,-3519.16 0,-1940.45 -1578.76,-3519.05 -3519.13,-3519.05zm0 7203.63c-2031.73,0 -3684.58,-1652.93 -3684.58,-3684.58 0,-2031.63 1652.85,-3684.48 3684.58,-3684.48 2031.63,0 3684.48,1652.85 3684.48,3684.48 0,2031.65 -1652.85,3684.58 -3684.48,3684.58z"/>
<path class="fil3" d="M8178.82 8636.12c0,-156.05 126.57,-282.58 282.67,-282.58 156.13,0 282.59,126.54 282.59,282.58 0,156.1 -126.46,282.67 -282.59,282.67 -156.1,0 -282.67,-126.57 -282.67,-282.67z"/>
<path class="fil2" d="M8461.49 8436.25c-110.29,0 -199.95,89.67 -199.95,199.87 0,110.18 89.67,199.85 199.95,199.85 110.2,0 199.87,-89.67 199.87,-199.85 0,-110.2 -89.67,-199.87 -199.87,-199.87zm0 565.25c-201.46,0 -365.38,-163.92 -365.38,-365.38 0,-201.49 163.92,-365.41 365.38,-365.41 201.49,0 365.3,163.92 365.3,365.41 0,201.46 -163.81,365.38 -365.3,365.38z"/>
<path class="fil3" d="M9547.39 8636.12c0,-156.05 126.54,-282.58 282.67,-282.58 156.02,0 282.58,126.54 282.58,282.58 0,156.1 -126.56,282.67 -282.58,282.67 -156.13,0 -282.67,-126.57 -282.67,-282.67z"/>
<path class="fil2" d="M9830.06 8436.25c-110.29,0 -199.95,89.67 -199.95,199.87 0,110.18 89.67,199.85 199.95,199.85 110.2,0 199.84,-89.67 199.84,-199.85 0,-110.2 -89.64,-199.87 -199.84,-199.87zm0 565.25c-201.46,0 -365.38,-163.92 -365.38,-365.38 0,-201.49 163.92,-365.41 365.38,-365.41 201.46,0 365.3,163.92 365.3,365.41 0,201.46 -163.84,365.38 -365.3,365.38z"/>
<path class="fil3" d="M10915.95 8636.12c0,-156.05 126.54,-282.58 282.56,-282.58 156.13,0 282.67,126.54 282.67,282.58 0,156.1 -126.54,282.67 -282.67,282.67 -156.02,0 -282.56,-126.57 -282.56,-282.67z"/>
<path class="fil2" d="M11198.51 8436.25c-110.18,0 -199.84,89.67 -199.84,199.87 0,110.18 89.67,199.85 199.84,199.85 110.31,0 199.95,-89.67 199.95,-199.85 0,-110.2 -89.64,-199.87 -199.95,-199.87zm0 565.25c-201.46,0 -365.27,-163.92 -365.27,-365.38 0,-201.49 163.81,-365.41 365.27,-365.41 201.49,0 365.41,163.92 365.41,365.41 0,201.46 -163.92,365.38 -365.41,365.38z"/>
<path class="fil2" d="M12585.06 11458.04l-7.6 -1.05c-14.66,-4.18 -23.13,-19.49 -18.92,-34.12l63.42 -221.73c4.18,-14.63 19.19,-23.39 34.12,-18.92 14.63,4.18 23.02,19.49 18.84,34.12l-63.42 221.73c-3.43,12.07 -14.47,19.97 -26.44,19.97z"/>
<path class="fil2" d="M12888.07 11846.44l-3.61 -0.19c-15.12,-2 -25.77,-15.87 -23.77,-30.91 33.93,-259.84 74.81,-521.59 121.42,-778.2 2.75,-15.12 17.19,-24.82 32.13,-22.26 14.93,2.75 24.82,17.11 22.15,32.13 -46.49,255.58 -87.19,516.58 -120.93,775.48 -1.91,13.88 -13.69,23.96 -27.38,23.96z"/>
<path class="fil2" d="M13281.51 12223.33c-15.23,0 -27.57,-12.26 -27.57,-27.57 0,-129.69 19.97,-347.32 37.54,-539.38 10.75,-116.94 19.97,-217.93 23.2,-281.54 0.67,-15.12 11.7,-28.33 28.92,-26.14 15.2,0.76 26.79,13.69 26.15,29 -3.24,64.66 -12.56,166.21 -23.31,283.8 -17.49,190.73 -37.35,407.13 -37.35,534.26 0,15.31 -12.26,27.57 -27.57,27.57z"/>
<path class="fil2" d="M13684.27 12594.72c-14.93,0 -27.2,-11.89 -27.6,-26.93l-20.73 -919.88c-0.27,-15.31 11.81,-27.95 27.01,-28.24 15.04,1.05 27.95,11.7 28.16,26.93l20.73 919.96c0.38,15.23 -11.7,27.87 -26.93,28.17l-0.65 0z"/>
<path class="fil2" d="M14067.71 13001.63c-14.74,0 -27,-11.67 -27.57,-26.52l-36.14 -963.43c-0.46,-15.12 11.32,-27.95 26.55,-28.51 16.14,0.75 28.03,11.32 28.62,26.52l36.11 963.35c0.48,15.2 -11.32,28.03 -26.63,28.59l-0.94 0z"/>
<path class="fil2" d="M14457.83 13344.59c-14.66,0 -26.74,-11.4 -27.57,-26.03l-48.7 -899.94c-0.84,-15.2 10.83,-28.24 26.06,-29 17.79,-1.89 28.14,10.83 29,25.95l48.68 899.94c0.86,15.2 -10.83,28.22 -25.96,29.08l-1.51 0z"/>
<path class="fil2" d="M14844.13 13661.59c-14.26,0 -26.33,-10.94 -27.49,-25.39l-67.59 -876.17c-1.13,-15.2 10.27,-28.41 25.39,-29.57 13.99,-2.37 28.43,10.19 29.57,25.39l67.59 876.05c1.24,15.12 -10.16,28.43 -25.36,29.57l-2.1 0.11z"/>
<path class="fil2" d="M15209.8 13946.44c-13.99,0 -25.96,-10.57 -27.38,-24.71l-79.1 -768.44c-1.54,-15.12 9.41,-28.62 24.61,-30.24 14.07,-2.07 28.62,9.52 30.24,24.63l79.02 768.44c1.62,15.12 -9.43,28.59 -24.53,30.13l-2.85 0.19z"/>
<path class="fil2" d="M15567.85 13905.56c-13.31,0 -24.98,-9.59 -27.19,-23.1l-55.52 -343.33c-2.48,-15.01 7.79,-29.19 22.83,-31.67 14.63,-2.56 29.19,7.71 31.56,22.83l55.52 343.33c2.48,15.01 -7.68,29.19 -22.72,31.56l-4.48 0.38z"/>
<path class="fil4" d="M7213.88 8667.47l0 5.9c0,1462.79 1189.99,2652.88 2652.88,2652.88 1127.05,0 2092.29,-706.5 2475.95,-1699.91 -47.35,67.51 -83.76,145.75 -136.91,208.41 -14.18,26.15 -199.01,234.1 -303.42,333.36 -90.4,80.72 -177.02,151.74 -265.37,219.06 -15.58,3.05 -31.18,8.92 -46.19,18.24 -450.31,325.85 -788.79,444.78 -1358.19,549.65 -147.67,27.57 -307.49,52.77 -491.46,52.77 -153,0 -322.61,-17.41 -515.91,-65.33 -298.27,-69.4 -442.22,-151.06 -753.7,-360.91 -132.36,-92.8 -426.99,-352.37 -627.24,-594.71l-0.19 -0.19c-215.45,-294.74 -289.32,-552.42 -333.63,-669.74 -44.76,-120.56 -78.43,-244.34 -113.89,-367.86 -52.1,-169.71 -68.27,-229.03 -68.08,-373.28 -32.24,-90.31 -61.99,-181.6 -88.81,-273.75 -16.74,119.45 -25.57,241.43 -25.85,365.38zm446.78 1757.93c-4.67,-4.96 -9.33,-10.08 -13.99,-15.23 -199.66,-224.37 -311.67,-449.82 -387.83,-668.1 101.74,247.28 237.6,477.09 401.82,683.33zm4447.39 -45.17c115.32,-151.09 215.74,-314.04 299.02,-486.8 -6.76,18.73 -13.5,37.54 -20.35,56.28 -39.65,92.15 -81.96,183.22 -125.78,273.83 -41.94,47.92 -93.76,100.99 -152.89,156.7z"/>
<path class="fil2" d="M9776.23 11415.06c-102.96,0 -205.75,-8.25 -307.38,-26.71l-2.75 -0.57c-164.97,-19.41 -331.18,-38.78 -491,-85.19 -292.56,-95.09 -556.5,-258.71 -804.64,-437.74 -104.41,-85.95 -269.76,-178.56 -509.81,-439.44 -164.22,-206.23 -300.08,-436.05 -401.82,-683.33 -40.97,-117.35 -71.58,-232.67 -99.83,-344.68 -47.17,-370.61 -54.01,-743.89 -5.9,-1116.11 3.91,-0.3 7.9,-0.48 11.81,-0.48 25.2,0 50.4,5.9 73.39,16.36 0.49,1.62 0.97,3.24 1.43,4.93 -17.01,121.33 -25.85,245.31 -25.85,371.28 0,1462.79 1189.99,2652.88 2652.88,2652.88 1127.05,0 2092.29,-706.5 2475.95,-1699.91 21.1,-30.13 44.31,-58.08 72.15,-81.66 21.02,-12.56 44.31,-18.35 67.41,-18.35 18.08,0 36.14,3.53 52.88,10.08 -42.13,119.13 -85.11,238.09 -128.07,357.02 -83.28,172.76 -183.7,335.71 -299.02,486.8 -178.66,168.39 -423.76,361.12 -662.98,510.11 -49.45,37.06 -85.87,62.44 -191.22,127.4 -259.27,137.1 -542.8,223.91 -826.79,293.69 -136.91,36.79 -273.15,78.27 -415.11,90.05 -78.27,8.84 -157.07,13.58 -235.72,13.58z"/>
<path class="fil4" d="M12283.93 11631.66c-20.06,-14.85 -38.03,-32.53 -53.15,-52.31l53.15 52.31z"/>
<path class="fil4" d="M12538.56 11650.02l-226.47 -222.78c212.3,-188.63 402.55,-401.33 566.65,-633.9 89.56,78.83 179.04,158.23 268.14,238.09 -3.15,6.36 -6.57,12.64 -10.27,18.73 -38.33,63.23 -83.77,121.88 -132.09,178.07 10.27,-60.64 20.94,-121.04 31.86,-181.22 2.67,-15.01 -7.22,-29.37 -22.15,-32.13 -1.62,-0.3 -3.24,-0.37 -4.85,-0.37 -13.02,0 -24.8,9.22 -27.27,22.64 -16.25,89.75 -31.86,180.06 -46.79,270.86 -106.19,136.72 -236.93,253.96 -389.15,337.62 -2.56,1.54 -5.12,2.96 -7.6,4.39zm109.61 -468.93c-12.07,0 -22.8,8.06 -26.22,20.05l-63.42 221.73c-4.2,14.63 4.26,29.94 18.92,34.12l7.6 1.05c11.97,0 23.02,-7.9 26.44,-19.97l63.42 -221.73c4.18,-14.63 -4.2,-29.94 -18.84,-34.12 -2.67,-0.75 -5.31,-1.13 -7.9,-1.13z"/>
<path class="fil2" d="M12425.69 11679.67c-52.1,0 -101.26,-18.17 -141.76,-48l-53.15 -52.31c-12.91,-17.01 -23.85,-35.55 -32.23,-55.14 38.43,-31.56 76.46,-63.98 113.54,-96.97l226.47 222.78c-37.76,20.54 -76.06,29.65 -112.87,29.65zm721.19 -648.24c-89.1,-79.86 -178.58,-159.26 -268.14,-238.09 19.22,-27.19 38.03,-54.57 56.49,-82.23 1.81,-0.11 3.61,-0.11 5.42,-0.11 19.48,0 39.91,2.85 61.61,9.13 131.77,34.8 202.59,190.36 144.62,311.29z"/>
<path class="fil2" d="M12198.55 11524.21c-30.89,-72.53 -26.98,-159.34 34.63,-235.13 24.61,-42.69 71.1,-61.99 110.1,-89.07l2.56 -1.99c197.28,-178.58 231.14,-166.78 350.85,-306.46l9.22 -10.92c55.9,-86.51 128.26,-166.78 229.33,-169.52 -18.46,27.65 -37.28,55.04 -56.49,82.23 -164.11,232.56 -354.35,445.26 -566.65,633.9 -37.08,32.99 -75.11,65.41 -113.54,96.97z"/>
<path class="fil2" d="M12585.06 11458.04l-7.6 -1.05c-14.66,-4.18 -23.13,-19.49 -18.92,-34.12l63.42 -221.73c3.42,-11.99 14.15,-20.05 26.22,-20.05 2.59,0 5.23,0.38 7.9,1.13 14.63,4.18 23.02,19.49 18.84,34.12l-63.42 221.73c-3.43,12.07 -14.47,19.97 -26.44,19.97z"/>
<path class="fil2" d="M12935.32 11308.01c14.93,-90.8 30.54,-181.11 46.79,-270.86 2.48,-13.42 14.26,-22.64 27.27,-22.64 1.62,0 3.24,0.08 4.85,0.37 14.93,2.75 24.82,17.11 22.15,32.13 -10.92,60.19 -21.59,120.58 -31.86,181.22 -19.11,22.26 -38.67,44.12 -58.38,65.7 -3.61,4.74 -7.22,9.41 -10.83,14.07z"/>
<path class="fil4" d="M3344.3 7899.54c-39.78,-63.41 -48.27,-146.51 -18.27,-214.69l15.98 0.19 2.29 214.5z"/>
<path class="fil5" d="M5078.79 8037.12c-89.86,0 -179.52,-3.53 -269.17,-11.88 -118.75,-8.65 -237.52,-11.05 -356.46,-11.05 -77.38,0 -154.78,1.05 -232.18,1.99 -77.67,1.05 -155.35,2.1 -232.94,2.1 -154.49,0 -308.81,-4.09 -462.84,-20.54 -0.94,0 -1.91,0 -2.85,0 -3.88,0 -7.71,-0.08 -11.51,-0.3l-3.31 -310.62 1835.1 20.46 3.34 310.62c-34.34,13.5 -72.26,18.17 -110.02,18.17 -10.83,0 -21.56,-0.38 -32.13,-1.05 -41.75,1.32 -83.39,2.1 -125.03,2.1z"/>
<path class="fil2" d="M5345.96 8017.91l-3.34 -310.62 97.94 1.02c49.46,80.64 50.21,192.27 -26.81,264.23 -19.57,20.92 -42.69,35.58 -67.78,45.36zm-1835.13 -20.46c-75.41,-3.69 -132.44,-43.63 -166.53,-97.92l-2.29 -214.5 165.51 1.8 3.31 310.62z"/>
<path class="fil2" d="M5440.56 7708.32l-97.94 -1.02 -1835.1 -20.46 -165.51 -1.8 -15.98 -0.19c20.13,-45.74 57.65,-84.81 114.73,-106.67 28.54,-14.26 58.86,-18.84 89.85,-18.84 26.52,0 53.72,3.34 80.83,6.65 27.09,3.34 54.09,6.66 80.53,6.66 1.62,0 3.24,0 4.85,0 133.39,8 267.17,1.62 400.47,9.89 388.48,14.93 777.44,9.62 1165.84,26.44 2.29,-0.11 4.47,-0.11 6.66,-0.11 74.84,0 135.3,41.75 170.76,99.45z"/>
</g>
</g>
</svg>